<svg xmlns="http://www.w3.org/2000/svg" xmlns:xlink="http://www.w3.org/1999/xlink" viewBox="0 0 221.65 249.15"><defs><style>.cls-1{fill:#fff;}.cls-2{fill:#c6c6c5;}.cls-3{fill:#565656;}.cls-4{fill:url(#linear-gradient);}.cls-5{fill:none;}.cls-5,.cls-7{stroke:#231f20;stroke-miterlimit:10;stroke-width:1.5px;}.cls-6{fill:#231f20;}.cls-7{fill:url(#radial-gradient);}</style><linearGradient id="linear-gradient" x1="203.35" y1="248.6" x2="203.35" y2="76.49" gradientUnits="userSpaceOnUse"><stop offset="0.02" stop-color="#00ad63"/><stop offset="0.04" stop-color="#0cb06a"/><stop offset="0.13" stop-color="#41c08a"/><stop offset="0.22" stop-color="#70cda5"/><stop offset="0.31" stop-color="#98d8bd"/><stop offset="0.41" stop-color="#b8e2d0"/><stop offset="0.5" stop-color="#d1e9df"/><stop offset="0.61" stop-color="#e3eeea"/><stop offset="0.71" stop-color="#eef1f0"/><stop offset="0.84" stop-color="#f1f2f2"/></linearGradient><radialGradient id="radial-gradient" cx="110.85" cy="142.96" r="74.4" gradientUnits="userSpaceOnUse"><stop offset="0.16" stop-color="#130c0e" stop-opacity="0"/><stop offset="0.61" stop-color="#130c0e" stop-opacity="0.65"/><stop offset="0.63" stop-color="#130c0e" stop-opacity="0.7"/><stop offset="0.85" stop-color="#130c0e" stop-opacity="0.95"/></radialGradient></defs><title>hUGE Logo</title><g id="Line_trace" data-name="Line trace"><path class="cls-1" d="M264.66,83.38c12.62,0,22.86,9.9,22.86,22.11s-10.24,22.12-22.86,22.12H141.49c-12.73,0-23.05-9.9-23.05-22.12s10.32-22.11,23.05-22.11Z" transform="translate(-92.5 -66.35)"/><path class="cls-2" d="M95.56,96.73c-2-.44-1.85-1.8-1.46-2.83.08-.22.62-.4,1.46-.55,4.56-.79,18.27-.61,21.15-.91a3.84,3.84,0,0,0,3.68-2.84.24.24,0,0,0-.16-.28c-4.66-1.33-20.36.24-24.67-.42a1.75,1.75,0,0,1-1.07-.38c-1.06-1.51-.66-12.39-.56-15.47s.31-3.08,2.13-4.5,190.38-1.92,193.85-.94,3,7.65,3,7.65-.24,2.63.87,2.9,15,.4,15.37.4h0c.16,0,2.25.4,3.06,4.38s-1.25,4.73-1.49,4.82h-.05c-5.75.59-22.51-.29-24.57-.4a.24.24,0,0,0-.25.21c-.19,1.74,1.49,3,1.83,3.24a.2.2,0,0,0,.13,0c2.42-.09,19.76,1.27,22.95,1.52l.51,0c3.17,1.31.11,3.57-.32,3.87a.17.17,0,0,1-.12,0h0c-6.27.42-18.44-.7-20.39-.89a.24.24,0,0,0-.25.25c.11,2.54,1,3.32,1.37,3.51a.19.19,0,0,0,.19,0c2.75-1,15.12.25,18.92.85l.22,0c3.2.61,1.14,2.87.75,3.27a.2.2,0,0,1-.15.06l-.55,0c-7.05.32-18.39-1.58-19.08.23a3.06,3.06,0,0,0,.59,3.12.21.21,0,0,0,.16.07c6.46.18,16.76.54,18.4.59h.22s2,.36,1.67,1.77a2.28,2.28,0,0,1-1.84,1.61h0a132.45,132.45,0,0,1-19.59-.73.22.22,0,0,0-.25.2,16,16,0,0,1-1.29,3.79.23.23,0,0,0,.26.32c5-1.06,16.89.14,21,.6l1.3.16a.2.2,0,0,1,.17.11c1.84,2.9-1.32,3.49-1.32,3.49h-.1a117.16,117.16,0,0,0-23,0,.22.22,0,0,0-.17.12,13.77,13.77,0,0,1-2.3,2.75.22.22,0,0,0,.21.38c5.89-1.38,19.94,0,25.36.59l2,.23a.24.24,0,0,1,.19.23v45.54a.23.23,0,0,1-.23.24h-5.06a.23.23,0,0,0-.23.23V314.44a.28.28,0,0,0,.07.17l-.07.14H100.67a.23.23,0,0,1-.23-.23V184s.34-12.95-1.22-13.89a7.69,7.69,0,0,0-3.71-.66c-.44,0-.8,0-1,0a.22.22,0,0,1-.22-.11c-1.72-3.38-.81-40.83-.79-43.23,0-2.07.68-2.62.88-2.73a.17.17,0,0,1,.1,0h1.07l24.86-.32a.23.23,0,0,0,.19-.37,38.6,38.6,0,0,0-2.51-3.21c-1-1.08-19.35-.2-22-.27l-.5,0c-2.17-.22-1.94-1.5-2-3,0-.3.76-.54,2-.72,5.15-.7,18.35-.53,20.39-.5a.24.24,0,0,0,.24-.26,11.69,11.69,0,0,0-1.46-3.4.25.25,0,0,0-.19-.12c-1.45,0-15.22-.43-18.42.21-.2,0-.39.06-.56.08-2.74.23-2.16-2.53-1.53-2.91a7.2,7.2,0,0,1,1.54-.22c4.55-.37,17.47-.79,17.47-.79a1.68,1.68,0,0,0,1.35-2.3c-.47-2.09-15.7-.67-18.81-1.14s-2-2.83-1.41-3a10.67,10.67,0,0,1,1.39-.1c4.41-.2,17.76-.47,19-.5a.26.26,0,0,0,.16-.07,3.29,3.29,0,0,0,.67-3.92.22.22,0,0,0-.21-.12c-1.3,0-11.46,0-16.38.47A10,10,0,0,1,95.56,96.73ZM289.4,283.34v-144A3.44,3.44,0,0,0,286,135.9H120.73a3.45,3.45,0,0,0-3.44,3.44v144a3.45,3.45,0,0,0,3.44,3.44H286A3.44,3.44,0,0,0,289.4,283.34Zm-1.88-177.85c0-12.21-10.24-22.11-22.86-22.11H141.49c-12.73,0-23.05,9.9-23.05,22.11s10.32,22.12,23.05,22.12H264.66C277.28,127.61,287.52,117.71,287.52,105.49ZM222.79,291.78a.33.33,0,0,0-.22-.56H186.32a.33.33,0,0,0-.23.55l17.64,17.74a.33.33,0,0,0,.45,0Z" transform="translate(-92.5 -66.35)"/><path class="cls-3" d="M312.6,307.34c.22,5.39-3.35,7-4.42,7.33a.22.22,0,0,1-.23-.06.28.28,0,0,1-.07-.17V169.1a.23.23,0,0,1,.23-.23h4.08l-.77,1.29a.17.17,0,0,0,0,.12Z" transform="translate(-92.5 -66.35)"/><path class="cls-3" d="M311.15,118.8l.06,3.83c-5.42-.61-19.47-2-25.36-.59a.22.22,0,0,1-.21-.38,13.77,13.77,0,0,0,2.3-2.75.22.22,0,0,1,.17-.12A117.16,117.16,0,0,1,311.15,118.8Z" transform="translate(-92.5 -66.35)"/><path class="cls-3" d="M311,110.86l.07,4.19c-4.09-.46-16-1.66-21-.6a.23.23,0,0,1-.26-.32,16,16,0,0,0,1.29-3.79.22.22,0,0,1,.25-.2,132.45,132.45,0,0,0,19.59.73Z" transform="translate(-92.5 -66.35)"/><path class="cls-3" d="M310.91,103.46l.07,4c-1.64,0-11.94-.41-18.4-.59a.21.21,0,0,1-.16-.07,3.06,3.06,0,0,1-.59-3.12C292.52,101.88,303.86,103.78,310.91,103.46Z" transform="translate(-92.5 -66.35)"/><path class="cls-3" d="M310.8,96.33l.06,3.78-.22,0c-3.8-.6-16.17-1.9-18.92-.85a.19.19,0,0,1-.19,0c-.32-.19-1.26-1-1.37-3.51a.24.24,0,0,1,.25-.25C292.36,95.63,304.53,96.75,310.8,96.33Z" transform="translate(-92.5 -66.35)"/><path class="cls-3" d="M310.67,87.77l.07,4.61c-3.19-.25-20.53-1.61-22.95-1.52a.2.2,0,0,1-.13,0c-.34-.23-2-1.5-1.83-3.24a.24.24,0,0,1,.25-.21c2.06.11,18.82,1,24.57.4Z" transform="translate(-92.5 -66.35)"/><path class="cls-4" d="M289.4,139.34v144a3.44,3.44,0,0,1-3.43,3.44H120.73a3.45,3.45,0,0,1-3.44-3.44v-144a3.45,3.45,0,0,1,3.44-3.44H286A3.44,3.44,0,0,1,289.4,139.34Z" transform="translate(-92.5 -66.35)"/><path class="cls-3" d="M222.57,291.22a.33.33,0,0,1,.22.56l-18.61,17.73a.33.33,0,0,1-.45,0l-17.64-17.74a.33.33,0,0,1,.23-.55Z" transform="translate(-92.5 -66.35)"/><path class="cls-3" d="M120.61,122.66a.23.23,0,0,1-.19.37l-24.86.32v-4.2l.5,0c2.69.07,21-.81,22,.27A38.6,38.6,0,0,1,120.61,122.66Z" transform="translate(-92.5 -66.35)"/><path class="cls-3" d="M120.23,89.32a.24.24,0,0,1,.16.28,3.84,3.84,0,0,1-3.68,2.84c-2.88.3-16.59.12-21.15.91V88.91h0C99.87,89.56,115.57,88,120.23,89.32Z" transform="translate(-92.5 -66.35)"/><path class="cls-3" d="M116.19,114.67a.24.24,0,0,1-.24.26c-2,0-15.24-.2-20.39.5v-4c.17,0,.36,0,.56-.08,3.2-.64,17-.25,18.42-.21a.25.25,0,0,1,.19.12A11.69,11.69,0,0,1,116.19,114.67Z" transform="translate(-92.5 -66.35)"/><path class="cls-3" d="M115.34,96.45a3.29,3.29,0,0,1-.67,3.92.26.26,0,0,1-.16.07c-1.19,0-14.54.3-19,.5V96.73a10,10,0,0,0,3.19.07c4.92-.51,15.08-.48,16.38-.47A.22.22,0,0,1,115.34,96.45Z" transform="translate(-92.5 -66.35)"/><path class="cls-3" d="M114.39,105.22a1.68,1.68,0,0,1-1.35,2.3s-12.92.42-17.47.79v-4.14l0-.09C98.69,104.55,113.92,103.13,114.39,105.22Z" transform="translate(-92.5 -66.35)"/><path class="cls-3" d="M99.22,170.08c1.56.94,1.22,13.89,1.22,13.89V314.52c-4.42,1.05-4.93-5.6-4.93-5.6V169.42A7.69,7.69,0,0,1,99.22,170.08Z" transform="translate(-92.5 -66.35)"/><path class="cls-5" d="M95.51,169.42v139.5s.51,6.65,4.93,5.6" transform="translate(-92.5 -66.35)"/><path class="cls-5" d="M312.19,168.87l-.77,1.29a.17.17,0,0,0,0,.12l1.22,137.06c.22,5.39-3.35,7-4.42,7.33a.22.22,0,0,1-.23-.06.28.28,0,0,1-.07-.17V169.1a.23.23,0,0,1,.23-.23h5.06a.23.23,0,0,0,.23-.24V123.09a.24.24,0,0,0-.19-.23l-2-.23c-5.42-.61-19.47-2-25.36-.59a.22.22,0,0,1-.21-.38,13.77,13.77,0,0,0,2.3-2.75.22.22,0,0,1,.17-.12,117.16,117.16,0,0,1,23,0h.1s3.16-.59,1.32-3.49a.2.2,0,0,0-.17-.11l-1.3-.16c-4.09-.46-16-1.66-21-.6a.23.23,0,0,1-.26-.32,16,16,0,0,0,1.29-3.79.22.22,0,0,1,.25-.2,132.45,132.45,0,0,0,19.59.73h0a2.28,2.28,0,0,0,1.84-1.61c.35-1.41-1.67-1.77-1.67-1.77H311c-1.64,0-11.94-.41-18.4-.59a.21.21,0,0,1-.16-.07,3.06,3.06,0,0,1-.59-3.12c.69-1.81,12,.09,19.08-.23l.55,0a.2.2,0,0,0,.15-.06c.39-.4,2.45-2.66-.75-3.27l-.22,0c-3.8-.6-16.17-1.9-18.92-.85a.19.19,0,0,1-.19,0c-.32-.19-1.26-1-1.37-3.51a.24.24,0,0,1,.25-.25c1.95.19,14.12,1.31,20.39.89h0a.17.17,0,0,0,.12,0c.43-.3,3.49-2.56.32-3.87l-.51,0c-3.19-.25-20.53-1.61-22.95-1.52a.2.2,0,0,1-.13,0c-.34-.23-2-1.5-1.83-3.24a.24.24,0,0,1,.25-.21c2.06.11,18.82,1,24.57.4h.05c.24-.09,2.28-.92,1.49-4.82s-2.9-4.35-3.06-4.38h0c-.38,0-14.27-.14-15.37-.4s-.87-2.9-.87-2.9.5-6.68-3-7.65-192-.48-193.85.94-2,1.42-2.13,4.5-.5,14,.56,15.47a1.75,1.75,0,0,0,1.07.38c4.31.66,20-.91,24.67.42a.24.24,0,0,1,.16.28,3.84,3.84,0,0,1-3.68,2.84c-2.88.3-16.59.12-21.15.91-.84.15-1.38.33-1.46.55-.39,1-.54,2.39,1.46,2.83a10,10,0,0,0,3.19.07c4.92-.51,15.08-.48,16.38-.47a.22.22,0,0,1,.21.12,3.29,3.29,0,0,1-.67,3.92.26.26,0,0,1-.16.07c-1.19,0-14.54.3-19,.5a10.67,10.67,0,0,0-1.39.1c-.54.21-1.69,2.57,1.41,3s18.34-1,18.81,1.14a1.68,1.68,0,0,1-1.35,2.3s-12.92.42-17.47.79a7.2,7.2,0,0,0-1.54.22c-.63.38-1.21,3.14,1.53,2.91.17,0,.36,0,.56-.08,3.2-.64,17-.25,18.42-.21a.25.25,0,0,1,.19.12,11.69,11.69,0,0,1,1.46,3.4.24.24,0,0,1-.24.26c-2,0-15.24-.2-20.39.5-1.29.18-2.07.42-2,.72.11,1.5-.12,2.78,2,3l.5,0c2.69.07,21-.81,22,.27a38.6,38.6,0,0,1,2.51,3.21.23.23,0,0,1-.19.37l-24.86.32H94.49a.17.17,0,0,0-.1,0c-.2.11-.87.66-.88,2.73,0,2.4-.93,39.85.79,43.23a.22.22,0,0,0,.22.11c.19,0,.55,0,1,0a7.69,7.69,0,0,1,3.71.66c1.56.94,1.22,13.89,1.22,13.89V314.52a.23.23,0,0,0,.23.23H307.88" transform="translate(-92.5 -66.35)"/><line class="cls-5" x1="3.06" y1="45.18" x2="3.06" y2="49.08"/><line class="cls-5" x1="3.06" y1="37.82" x2="3.06" y2="41.88"/><line class="cls-5" x1="3.06" y1="30.48" x2="3.06" y2="34.48"/><polyline class="cls-5" points="3.06 30.22 3.06 30.38 3.06 30.48"/><polyline class="cls-5" points="3.06 22.56 3.06 27 3.06 27.11"/><polyline class="cls-5" points="3.06 52.69 3.06 52.8 3.06 57"/><polyline class="cls-5" points="218.65 52.32 218.65 52.45 218.71 56.28"/><polyline class="cls-5" points="218.53 44.34 218.53 44.51 218.6 48.7 218.6 48.89"/><polyline class="cls-5" points="218.41 36.92 218.41 37.11 218.48 41.12 218.48 41.23"/><polyline class="cls-5" points="218.3 29.87 218.3 29.98 218.36 33.76 218.36 33.84"/><polyline class="cls-5" points="218.17 21.41 218.17 21.42 218.24 26.03"/><path class="cls-5" d="M262.23,83.51a21.72,21.72,0,0,1,2.43-.13c12.62,0,22.86,9.9,22.86,22.11s-10.24,22.12-22.86,22.12a24.16,24.16,0,0,1-2.7-.16" transform="translate(-92.5 -66.35)"/><path class="cls-5" d="M143.34,83.45c-.61,0-1.23-.07-1.85-.07-12.73,0-23.05,9.9-23.05,22.11s10.32,22.12,23.05,22.12q1.06,0,2.1-.09" transform="translate(-92.5 -66.35)"/><line class="cls-5" x1="48.99" y1="61.26" x2="172.16" y2="61.26"/><line class="cls-5" x1="48.99" y1="17.03" x2="172.16" y2="17.03"/><path class="cls-5" d="M286,286.78H120.73a3.45,3.45,0,0,1-3.44-3.44v-144a3.45,3.45,0,0,1,3.44-3.44H286a3.44,3.44,0,0,1,3.43,3.44v144A3.44,3.44,0,0,1,286,286.78Z" transform="translate(-92.5 -66.35)"/><path class="cls-5" d="M186.09,291.77l17.64,17.74a.33.33,0,0,0,.45,0l18.61-17.73a.33.33,0,0,0-.22-.56H186.32A.33.33,0,0,0,186.09,291.77Z" transform="translate(-92.5 -66.35)"/><path class="cls-6" d="M138.05,114,140,100.18a1.3,1.3,0,0,1,1.28-1.12h.62a1.3,1.3,0,0,1,1.29,1.48l-.38,2.64a1.29,1.29,0,0,0,1.66,1.44,5.05,5.05,0,0,1,1.61-.28c2.09,0,3.32,1.47,3,4l-.83,5.94a1.29,1.29,0,0,1-1.28,1.11h-.63A1.29,1.29,0,0,1,145,114l.78-5.51c.09-.77-.24-1.47-1-1.47a4,4,0,0,0-2.32,1,1.22,1.22,0,0,0-.46.83l-.76,5.46a1.29,1.29,0,0,1-1.29,1.11h-.62A1.29,1.29,0,0,1,138.05,114Z" transform="translate(-92.5 -66.35)"/><path class="cls-6" d="M155.53,108.33c-.53,3.69,2.21,4.27,3.65,4.27a3.85,3.85,0,0,0,4.1-3.62l1.24-8.8a1.3,1.3,0,0,1,1.28-1.12h.86a1.3,1.3,0,0,1,1.29,1.48l-1.23,8.72c-.75,5.33-4.45,6.39-7.54,6.39-5.62,0-7.75-3.15-7.15-7.27l1.18-8.21a1.3,1.3,0,0,1,1.28-1.11h.87a1.29,1.29,0,0,1,1.28,1.48Z" transform="translate(-92.5 -66.35)"/><path class="cls-6" d="M179.51,106.82h3.86a1.29,1.29,0,0,1,1.28,1.47l-.84,6a1.29,1.29,0,0,1-1.1,1.1,31.46,31.46,0,0,1-4.12.29c-6.81,0-9.24-3.82-9.24-7.39,0-4.13,3.2-9.44,11.79-9.44a18.68,18.68,0,0,1,3.58.34,1.29,1.29,0,0,1,1,1.45l-.07.45a1.29,1.29,0,0,1-1.55,1.09,14.83,14.83,0,0,0-3-.28c-4.8,0-8.19,2.52-8.19,6.27,0,3,2.28,4.46,5.21,4.46a9.75,9.75,0,0,0,1.47-.09,1.3,1.3,0,0,0,1.11-1.1l.07-.53a1.29,1.29,0,0,0-1.28-1.47h0a1.31,1.31,0,0,1-1.29-1.48h0A1.29,1.29,0,0,1,179.51,106.82Z" transform="translate(-92.5 -66.35)"/><path class="cls-6" d="M187.39,114l1.94-13.78a1.3,1.3,0,0,1,1.29-1.12h7.6a1.3,1.3,0,0,1,1.29,1.48l0,.14a1.3,1.3,0,0,1-1.29,1.12h-4.49a1.29,1.29,0,0,0-1.28,1.11l-.18,1.27a1.29,1.29,0,0,0,1.28,1.48h2.94a1.3,1.3,0,0,1,1.29,1.48l0,.14a1.3,1.3,0,0,1-1.29,1.12h-3.67a1.3,1.3,0,0,0-1.29,1.12l-.23,1.7a1.29,1.29,0,0,0,1.28,1.48h5.52a1.29,1.29,0,0,1,1.28,1.47l0,.15a1.29,1.29,0,0,1-1.28,1.11h-9.36A1.29,1.29,0,0,1,187.39,114Z" transform="translate(-92.5 -66.35)"/><path class="cls-6" d="M208.49,100.32l0-.14a1.3,1.3,0,0,1,1.28-1.12h11.38a1.29,1.29,0,0,1,1.28,1.48l0,.14a1.3,1.3,0,0,1-1.28,1.12h-3.08a1.3,1.3,0,0,0-1.28,1.11l-1.61,11.41a1.28,1.28,0,0,1-1.28,1.11H213a1.29,1.29,0,0,1-1.29-1.47l1.51-10.68A1.3,1.3,0,0,0,212,101.8h-2.2A1.29,1.29,0,0,1,208.49,100.32Z" transform="translate(-92.5 -66.35)"/><path class="cls-6" d="M224.7,115.43h-.87a1.29,1.29,0,0,1-1.28-1.47l1.92-13.78a1.3,1.3,0,0,1,1.28-1.12h4.49c4.15,0,5.52,2.91,5.52,4.92a4.17,4.17,0,0,1-3.65,4.28v0a3.42,3.42,0,0,1,1.73,1.92l1.62,3.35a1.29,1.29,0,0,1-1.16,1.86h-1a1.3,1.3,0,0,1-1.17-.74L231,112.12c-1.39-3-1.77-3.31-3.48-3.31h-.74l-.76,5.5A1.3,1.3,0,0,1,224.7,115.43Zm2.6-10.64a1.29,1.29,0,0,0,1.29,1.47h.24c2.35,0,3.33-1.17,3.33-2.37s-1-2.09-2.73-2.09h-.58a1.29,1.29,0,0,0-1.28,1.12Z" transform="translate(-92.5 -66.35)"/><path class="cls-6" d="M251.22,113.62a1.28,1.28,0,0,1-.79,1,13.36,13.36,0,0,1-5.07,1c-4.75,0-8-3-8-7.49,0-5.5,4.37-9.34,10.68-9.34a16.11,16.11,0,0,1,3.19.34,1.3,1.3,0,0,1,1,1.52l-.08.44a1.3,1.3,0,0,1-1.55,1,13.42,13.42,0,0,0-2.67-.27c-5.26,0-7,3.82-7,6.36s1.8,4.37,4.68,4.37a9.53,9.53,0,0,0,3.81-.82,1.3,1.3,0,0,1,1.81,1.36Z" transform="translate(-92.5 -66.35)"/><path class="cls-6" d="M258.42,106.1,265,99.45a1.29,1.29,0,0,1,.92-.39h.47a1.29,1.29,0,0,1,.92,2.21l-4.38,4.41a1.32,1.32,0,0,0-.14,1.67l4.29,6a1.3,1.3,0,0,1-1.06,2h-.86a1.31,1.31,0,0,1-1.06-.54l-3.89-5.49a1.3,1.3,0,0,0-2.34.57l-.61,4.35a1.29,1.29,0,0,1-1.29,1.11h-.86a1.29,1.29,0,0,1-1.28-1.47l1.94-13.78A1.29,1.29,0,0,1,257,99.06h.86a1.3,1.3,0,0,1,1.29,1.48l-.78,5.51Z" transform="translate(-92.5 -66.35)"/><polyline class="cls-7" points="24.79 147.68 51.06 147.68 51.06 108.85 59.43 108.85 59.43 179.23 65.17 179.23 65.17 166.29 65.17 133.65 72.18 133.65 72.18 203.5 80.54 203.5 80.54 82.42 89.17 82.42 89.17 138.25 94.88 138.25 94.88 89.17 115.97 89.17 115.97 195.41 130.39 195.41 130.39 155.5 138.52 155.5 138.52 99.68 152.35 99.68 152.35 150.92 162.79 150.92 162.79 124.58 172.16 124.58 172.16 172.76 177.89 172.76 177.89 136.63 189.22 136.63 189.22 142.96 196.9 142.96"/></g></svg>